<svg width="1280" height="720" viewBox="0 0 1280 720" fill="none" xmlns="http://www.w3.org/2000/svg">
<rect width="1280" height="720" fill="#FFA07A"/>
<rect x="334" y="265" width="631" height="349" fill="black" fill-opacity="0.33"/>
<rect x="329" y="260" width="631" height="349" fill="black" fill-opacity="0.33"/>
<rect x="324" y="255" width="631" height="349" fill="black" fill-opacity="0.33"/>
<rect x="319" y="250" width="631" height="349" fill="black" fill-opacity="0.33"/>
<rect x="314" y="245" width="631" height="349" fill="#31150F"/>
<rect x="314" y="245" width="631" height="20" fill="#DAD7D7"/>
<rect x="314" y="245" width="20" height="349" fill="#474747" fill-opacity="0.58"/>
<path d="M553.829 167H518.309V122.2H553.829V131.16H529.829V139.8H548.709V148.76H529.829V158.04H553.829V167ZM593.494 122.2C598.315 122.2 601.963 123.459 604.438 125.976C606.955 128.451 608.214 132.099 608.214 136.92V152.28C608.214 157.101 606.955 160.771 604.438 163.288C601.963 165.763 598.315 167 593.494 167H568.534V122.2H593.494ZM596.694 136.92C596.694 133.08 594.774 131.16 590.934 131.16H580.054V158.04H590.934C594.774 158.04 596.694 156.12 596.694 152.28V136.92ZM645.316 167H622.276V158.04H628.036V131.16H622.276V122.2H645.316V131.16H639.556V158.04H645.316V167ZM682.431 167H670.911V131.16H657.471V122.2H695.871V131.16H682.431V167ZM738.759 134.36C738.759 131.8 737.479 130.52 734.919 130.52H724.039C721.479 130.52 720.199 131.8 720.199 134.36V154.84C720.199 157.4 721.479 158.68 724.039 158.68H734.919C737.479 158.68 738.759 157.4 738.759 154.84V134.36ZM750.279 154.84C750.279 159.32 749.255 162.584 747.207 164.632C745.201 166.637 741.959 167.64 737.479 167.64H721.479C716.999 167.64 713.735 166.637 711.687 164.632C709.681 162.584 708.679 159.32 708.679 154.84V134.36C708.679 129.88 709.681 126.637 711.687 124.632C713.735 122.584 716.999 121.56 721.479 121.56H737.479C741.959 121.56 745.201 122.584 747.207 124.632C749.255 126.637 750.279 129.88 750.279 134.36V154.84ZM766.309 122.2H793.189C797.669 122.2 800.911 123.224 802.917 125.272C804.965 127.277 805.989 130.52 805.989 135V140.76C805.989 144.301 805.391 147.053 804.197 149.016C803.045 150.979 801.189 152.28 798.629 152.92L806.629 167H794.149L786.789 153.56H777.829V167H766.309V122.2ZM794.469 135C794.469 132.44 793.189 131.16 790.629 131.16H777.829V144.6H790.629C793.189 144.6 794.469 143.32 794.469 140.76V135Z" fill="#6084B9"/>
<path d="M467.875 167.625L469.515 165.113L467.907 164.063L466.281 165.084L467.875 167.625ZM460.625 167.625L462.219 165.084L460.625 164.083L459.031 165.084L460.625 167.625ZM455.438 168.375L456.262 165.49L456.214 165.477L456.165 165.465L455.438 168.375ZM453.906 167.75L455.485 165.199L455.472 165.191L455.459 165.183L453.906 167.75ZM452.906 164.625L454.741 162.251L452.306 160.37L450.487 162.851L452.906 164.625ZM458.5 162.781L461.238 164.006L461.5 163.422V162.781H458.5ZM457.906 145.375L455.576 147.264L455.605 147.301L455.636 147.336L457.906 145.375ZM454.688 143.094L453.443 140.364L447.689 142.987L453.361 145.784L454.688 143.094ZM457.438 141.375L455.176 139.404L455.154 139.429L455.133 139.454L457.438 141.375ZM458.5 125.438H461.5V124.805L461.244 124.226L458.5 125.438ZM452.906 123.562L450.487 125.337L452.306 127.817L454.741 125.936L452.906 123.562ZM452.906 121.344L450.455 119.614L450.42 119.663L450.388 119.714L452.906 121.344ZM453.906 120.438L455.45 123.01L455.458 123.005L455.466 123L453.906 120.438ZM460.625 120.594L458.972 123.098L460.593 124.167L462.232 123.127L460.625 120.594ZM467.875 120.594L466.268 123.127L467.537 123.932L468.942 123.398L467.875 120.594ZM487.906 122.25L489.608 119.779L489.604 119.777L487.906 122.25ZM493.156 130.344L496.111 129.825L496.105 129.792L496.099 129.759L493.156 130.344ZM496.125 133.844L497.599 136.457L502.695 133.582L497.386 131.122L496.125 133.844ZM492.938 138.219L490.027 137.491L490.025 137.498L492.938 138.219ZM485.281 145.938L484.554 143.027L473.301 145.84L484.506 148.836L485.281 145.938ZM490.438 149.406L492.828 147.593L492.824 147.588L490.438 149.406ZM495.406 164.75L496.67 162.029L496.655 162.022L496.641 162.016L495.406 164.75ZM499.031 164.625L501.45 162.851L499.631 160.37L497.197 162.251L499.031 164.625ZM498.219 167.75L496.489 165.299L496.432 165.339L496.377 165.382L498.219 167.75ZM492.656 167.812L494.132 165.201L492.679 164.379L491.215 165.181L492.656 167.812ZM487.75 168.094L489.106 165.418L487.619 164.664L486.193 165.529L487.75 168.094ZM484.031 168.188L482.69 170.871L482.708 170.88L482.727 170.889L484.031 168.188ZM482.469 166.75L479.989 168.439L479.997 168.45L482.469 166.75ZM476.875 148.438L475.485 151.096L476.875 148.438ZM470 147.719V144.719H467V147.719H470ZM470 162.938H467V163.489L467.196 164.004L470 162.938ZM474.969 164.625L477.388 162.851L475.569 160.37L473.134 162.251L474.969 164.625ZM474.312 167.781L476.283 170.044L476.288 170.039L474.312 167.781ZM471.281 143.031L470.075 145.778L470.082 145.781L471.281 143.031ZM478.219 143.312L478.992 146.211L479.024 146.203L479.055 146.194L478.219 143.312ZM479.875 142.375L481.946 144.545L481.948 144.544L479.875 142.375ZM478.031 123.75L477.028 126.577L477.051 126.585L477.074 126.593L478.031 123.75ZM483.375 125.406L483.942 122.46L478.31 121.377L480.632 126.621L483.375 125.406ZM483.562 142.312L480.859 141.013L478.252 146.434L484.151 145.254L483.562 142.312ZM486.031 137.719L483.087 137.144L483.082 137.171L483.077 137.197L486.031 137.719ZM486.281 136.438L489.226 137.012L489.233 136.975L489.239 136.938L486.281 136.438ZM488.281 133.844L489.246 136.684L497.688 133.817L489.23 130.998L488.281 133.844ZM486.719 132.875L484.114 134.363L484.136 134.402L484.159 134.439L486.719 132.875ZM486.031 130.656L483.077 131.178L483.083 131.211L483.09 131.245L486.031 130.656ZM484.781 126.562L482.202 128.094L482.211 128.111L482.221 128.127L484.781 126.562ZM461.5 159.719H458.5V164.068L462.566 162.523L461.5 159.719ZM463.219 155.625L460.223 155.465L460.222 155.478L460.222 155.491L463.219 155.625ZM463.375 137.719H460.375V137.742L460.375 137.765L463.375 137.719ZM463.344 134.406L466.343 134.331L466.343 134.33L463.344 134.406ZM462.625 129.969L460.237 131.784L460.277 131.838L460.32 131.889L462.625 129.969ZM461.5 128.938L462.777 126.223L458.5 124.21V128.938H461.5ZM461.125 141.312L463.957 142.304L464.002 142.174L464.035 142.04L461.125 141.312ZM459 143.094L458.099 140.232L449.488 142.943L458.009 145.925L459 143.094ZM461.125 144.688L464.035 143.96L464.03 143.937L464.024 143.915L461.125 144.688ZM483.062 151.156L482.537 148.203L477.257 149.141L480.82 153.149L483.062 151.156ZM487.469 164.219L488.156 167.139L492.288 166.167L489.992 162.596L487.469 164.219ZM485.656 152.656L488.152 150.992L488.146 150.982L488.139 150.972L485.656 152.656ZM466.281 165.084C465.734 165.427 465.087 165.625 464.25 165.625V171.625C466.122 171.625 467.891 171.157 469.469 170.166L466.281 165.084ZM464.25 165.625C463.413 165.625 462.766 165.427 462.219 165.084L459.031 170.166C460.609 171.157 462.378 171.625 464.25 171.625V165.625ZM459.031 165.084C458.276 165.557 457.837 165.625 457.656 165.625V171.625C459.309 171.625 460.849 171.026 462.219 170.166L459.031 165.084ZM457.656 165.625C456.92 165.625 456.482 165.553 456.262 165.49L454.613 171.26C455.559 171.53 456.601 171.625 457.656 171.625V165.625ZM456.165 165.465C455.833 165.382 455.619 165.282 455.485 165.199L452.327 170.301C453.068 170.76 453.875 171.077 454.71 171.285L456.165 165.465ZM455.459 165.183C455.285 165.078 455.319 165.058 455.4 165.181C455.443 165.245 455.487 165.332 455.519 165.439C455.551 165.545 455.562 165.642 455.562 165.719H449.562C449.562 167.886 450.856 169.411 452.354 170.317L455.459 165.183ZM455.562 165.719C455.562 165.788 455.552 165.898 455.51 166.032C455.468 166.168 455.403 166.294 455.325 166.399L450.487 162.851C449.852 163.717 449.562 164.715 449.562 165.719H455.562ZM451.072 166.999C452.164 167.843 453.436 168.156 454.656 168.156V162.156C454.551 162.156 454.527 162.143 454.559 162.153C454.575 162.158 454.602 162.168 454.636 162.185C454.671 162.202 454.706 162.225 454.741 162.251L451.072 166.999ZM454.656 168.156C456.012 168.156 457.372 167.864 458.585 167.115C459.811 166.357 460.677 165.261 461.238 164.006L455.762 161.556C455.615 161.885 455.486 161.977 455.431 162.01C455.363 162.052 455.155 162.156 454.656 162.156V168.156ZM461.5 162.781V147.5H455.5V162.781H461.5ZM461.5 147.5C461.5 146.219 461.25 144.657 460.177 143.414L455.636 147.336C455.49 147.167 455.457 147.039 455.462 147.057C455.465 147.067 455.475 147.106 455.484 147.182C455.493 147.258 455.5 147.362 455.5 147.5H461.5ZM460.237 143.486C459.211 142.22 457.686 141.227 456.014 140.403L453.361 145.784C454.731 146.46 455.352 146.988 455.576 147.264L460.237 143.486ZM455.932 145.823C457.339 145.182 458.843 144.375 459.742 143.296L455.133 139.454C455.218 139.352 455.189 139.422 454.848 139.636C454.537 139.83 454.079 140.074 453.443 140.364L455.932 145.823ZM459.699 143.346C460.854 142.021 461.5 140.414 461.5 138.625H455.5C455.5 138.878 455.437 139.104 455.176 139.404L459.699 143.346ZM461.5 138.625V125.438H455.5V138.625H461.5ZM461.244 124.226C460.688 122.965 459.827 121.858 458.6 121.09C457.384 120.329 456.019 120.031 454.656 120.031V126.031C455.148 126.031 455.35 126.135 455.416 126.176C455.47 126.21 455.604 126.306 455.756 126.649L461.244 124.226ZM454.656 120.031C453.436 120.031 452.164 120.345 451.072 121.189L454.741 125.936C454.706 125.963 454.671 125.985 454.636 126.003C454.602 126.02 454.575 126.03 454.559 126.035C454.527 126.045 454.551 126.031 454.656 126.031V120.031ZM455.325 121.788C455.393 121.88 455.457 121.999 455.503 122.139C455.548 122.279 455.562 122.404 455.562 122.5H449.562C449.562 123.519 449.872 124.498 450.487 125.337L455.325 121.788ZM455.562 122.5C455.562 122.571 455.552 122.659 455.524 122.753C455.496 122.848 455.458 122.922 455.425 122.974L450.388 119.714C449.848 120.547 449.562 121.497 449.562 122.5H455.562ZM455.357 123.074C455.351 123.083 455.349 123.083 455.358 123.075C455.369 123.065 455.396 123.042 455.45 123.01L452.363 117.865C451.632 118.304 450.973 118.88 450.455 119.614L455.357 123.074ZM455.466 123C455.91 122.73 456.454 122.562 457.188 122.562V116.562C455.462 116.562 453.819 116.978 452.346 117.875L455.466 123ZM457.188 122.562C457.851 122.562 458.422 122.734 458.972 123.098L462.278 118.09C460.745 117.078 459.024 116.562 457.188 116.562V122.562ZM462.232 123.127C462.816 122.757 463.462 122.562 464.25 122.562V116.562C462.371 116.562 460.601 117.056 459.018 118.061L462.232 123.127ZM464.25 122.562C465.038 122.562 465.684 122.757 466.268 123.127L469.482 118.061C467.899 117.056 466.129 116.562 464.25 116.562V122.562ZM468.942 123.398C470.913 122.648 473.15 122.25 475.688 122.25V116.25C472.517 116.25 469.545 116.748 466.808 117.79L468.942 123.398ZM475.688 122.25C478.403 122.25 480.527 122.498 482.127 122.928L483.685 117.134C481.41 116.523 478.722 116.25 475.688 116.25V122.25ZM482.127 122.928C483.796 123.377 485.139 123.989 486.208 124.723L489.604 119.777C487.882 118.594 485.892 117.727 483.685 117.134L482.127 122.928ZM486.204 124.721C488.351 126.199 489.673 128.209 490.214 130.929L496.099 129.759C495.264 125.562 493.087 122.176 489.608 119.779L486.204 124.721ZM490.201 130.863C490.678 133.575 492.47 135.457 494.864 136.566L497.386 131.122C496.363 130.648 496.176 130.195 496.111 129.825L490.201 130.863ZM494.651 131.231C492.229 132.597 490.704 134.785 490.027 137.491L495.848 138.946C496.171 137.653 496.771 136.924 497.599 136.457L494.651 131.231ZM490.025 137.498C489.622 139.126 488.961 140.29 488.128 141.13C487.296 141.968 486.151 142.628 484.554 143.027L486.009 148.848C488.495 148.226 490.667 147.089 492.388 145.355C494.107 143.622 495.232 141.436 495.85 138.939L490.025 137.498ZM484.506 148.836C485.962 149.225 487.116 149.997 488.051 151.224L492.824 147.588C491.092 145.315 488.809 143.775 486.056 143.039L484.506 148.836ZM488.047 151.219C488.994 152.467 489.5 153.953 489.5 155.812H495.5C495.5 152.755 494.631 149.97 492.828 147.593L488.047 151.219ZM489.5 155.812V158.938H495.5V155.812H489.5ZM489.5 158.938C489.5 162.551 490.725 165.928 494.171 167.484L496.641 162.016C496.213 161.822 495.5 161.324 495.5 158.938H489.5ZM494.143 167.471C495.149 167.938 496.219 168.156 497.312 168.156V162.156C497.031 162.156 496.83 162.104 496.67 162.029L494.143 167.471ZM497.312 168.156C498.535 168.156 499.789 167.831 500.866 166.999L497.197 162.251C497.227 162.228 497.259 162.207 497.292 162.19C497.325 162.174 497.353 162.163 497.372 162.157C497.411 162.145 497.399 162.156 497.312 162.156V168.156ZM496.612 166.399C496.535 166.294 496.47 166.168 496.427 166.032C496.385 165.898 496.375 165.788 496.375 165.719H502.375C502.375 164.715 502.086 163.717 501.45 162.851L496.612 166.399ZM496.375 165.719C496.375 165.65 496.385 165.572 496.406 165.494C496.428 165.416 496.456 165.358 496.477 165.323L501.648 168.365C502.117 167.568 502.375 166.67 502.375 165.719H496.375ZM496.477 165.323C496.48 165.317 496.484 165.312 496.488 165.306C496.492 165.3 496.496 165.295 496.5 165.292C496.503 165.288 496.504 165.287 496.503 165.288C496.502 165.289 496.497 165.293 496.489 165.299L499.949 170.201C500.631 169.719 501.212 169.106 501.648 168.365L496.477 165.323ZM496.377 165.382C496.182 165.533 495.964 165.625 495.594 165.625V171.625C497.223 171.625 498.755 171.133 500.061 170.118L496.377 165.382ZM495.594 165.625C495.162 165.625 494.687 165.514 494.132 165.201L491.18 170.424C492.542 171.194 494.025 171.625 495.594 171.625V165.625ZM491.215 165.181C490.163 165.757 489.584 165.66 489.106 165.418L486.394 170.77C488.957 172.069 491.649 171.784 494.097 170.444L491.215 165.181ZM486.193 165.529C486.051 165.615 485.971 165.625 485.906 165.625V171.625C487.133 171.625 488.282 171.28 489.307 170.658L486.193 165.529ZM485.906 165.625C485.73 165.625 485.549 165.589 485.335 165.486L482.727 170.889C483.722 171.369 484.791 171.625 485.906 171.625V165.625ZM485.373 165.504C485.34 165.488 485.18 165.398 484.941 165.05L479.997 168.45C480.674 169.435 481.556 170.304 482.69 170.871L485.373 165.504ZM484.948 165.061C484.473 164.364 484 162.884 484 160.125H478C478 163.324 478.506 166.261 479.989 168.439L484.948 165.061ZM484 160.125V157.812H478V160.125H484ZM484 157.812C484 152.555 482.484 147.984 478.265 145.779L475.485 151.096C476.766 151.766 478 153.445 478 157.812H484ZM478.265 145.779C476.845 145.037 475.279 144.719 473.656 144.719V150.719C474.492 150.719 475.071 150.88 475.485 151.096L478.265 145.779ZM473.656 144.719H470V150.719H473.656V144.719ZM467 147.719V162.938H473V147.719H467ZM467.196 164.004C467.646 165.188 468.388 166.288 469.524 167.072C470.66 167.855 471.952 168.156 473.219 168.156V162.156C473.055 162.156 472.966 162.137 472.932 162.128C472.901 162.119 472.908 162.117 472.929 162.132C472.95 162.146 472.951 162.153 472.932 162.128C472.911 162.1 472.862 162.023 472.804 161.871L467.196 164.004ZM473.219 168.156C474.439 168.156 475.711 167.843 476.803 166.999L473.134 162.251C473.169 162.225 473.204 162.202 473.239 162.185C473.273 162.168 473.3 162.158 473.316 162.153C473.348 162.143 473.324 162.156 473.219 162.156V168.156ZM472.55 166.399C472.39 166.181 472.333 165.998 472.316 165.931C472.3 165.867 472.312 165.879 472.312 166H478.312C478.312 165.091 478.153 163.894 477.388 162.851L472.55 166.399ZM472.312 166C472.312 165.871 472.331 165.751 472.36 165.647C472.388 165.544 472.423 165.471 472.447 165.43C472.489 165.355 472.487 165.393 472.337 165.524L476.288 170.039C477.297 169.157 478.312 167.809 478.312 166H472.312ZM472.342 165.519C472.407 165.463 472.412 165.488 472.266 165.531C472.11 165.575 471.827 165.625 471.375 165.625V171.625C473.041 171.625 474.865 171.279 476.283 170.043L472.342 165.519ZM471.375 165.625C470.598 165.625 470.011 165.437 469.515 165.113L466.235 170.137C467.781 171.147 469.527 171.625 471.375 171.625V165.625ZM476 120.406C473.695 120.406 471.415 120.839 469.661 122.2C467.762 123.673 467 125.816 467 128.062H473C473 127.205 473.238 127.019 473.339 126.94C473.585 126.749 474.305 126.406 476 126.406V120.406ZM467 128.062V140.844H473V128.062H467ZM467 140.844C467 141.771 467.183 142.782 467.732 143.719C468.298 144.686 469.132 145.364 470.075 145.778L472.487 140.284C472.519 140.298 472.591 140.336 472.679 140.411C472.769 140.489 472.849 140.584 472.909 140.687C473.031 140.895 473 141 473 140.844H467ZM470.082 145.781C471.462 146.383 473.153 146.562 474.875 146.562V140.562C473.43 140.562 472.725 140.388 472.48 140.281L470.082 145.781ZM474.875 146.562C476.468 146.562 477.944 146.491 478.992 146.211L477.446 140.414C477.244 140.468 476.49 140.562 474.875 140.562V146.562ZM479.055 146.194C480.135 145.88 481.118 145.336 481.946 144.545L477.804 140.205C477.715 140.289 477.595 140.37 477.382 140.431L479.055 146.194ZM481.948 144.544C483.757 142.815 484.281 140.307 484.281 137.875H478.281C478.281 139.651 477.868 140.144 477.802 140.206L481.948 144.544ZM484.281 137.875V128.75H478.281V137.875H484.281ZM484.281 128.75C484.281 127.045 483.926 125.362 482.984 123.912C482.02 122.428 480.611 121.453 478.988 120.907L477.074 126.593C477.618 126.776 477.834 126.999 477.953 127.182C478.094 127.399 478.281 127.851 478.281 128.75H484.281ZM479.034 120.923C478.056 120.575 477.038 120.406 476 120.406V126.406C476.378 126.406 476.715 126.466 477.028 126.577L479.034 120.923ZM480.632 126.621C481.011 127.476 481.344 129.278 481.344 132.406H487.344C487.344 129.118 487.031 126.253 486.118 124.191L480.632 126.621ZM481.344 132.406C481.344 135.132 481.279 137.249 481.158 138.788C481.097 139.558 481.025 140.14 480.951 140.558C480.868 141.025 480.81 141.114 480.859 141.013L486.266 143.612C486.575 142.97 486.746 142.24 486.858 141.61C486.979 140.932 487.07 140.14 487.139 139.259C487.278 137.495 487.344 135.201 487.344 132.406H481.344ZM484.151 145.254C485.961 144.892 487.058 143.573 487.682 142.412C488.311 141.242 488.711 139.794 488.986 138.24L483.077 137.197C482.851 138.477 482.59 139.211 482.396 139.572C482.197 139.943 482.31 139.504 482.974 139.371L484.151 145.254ZM488.976 138.293L489.226 137.012L483.337 135.863L483.087 137.144L488.976 138.293ZM489.239 136.938C489.292 136.623 489.363 136.561 489.329 136.605C489.312 136.627 489.286 136.653 489.256 136.674C489.227 136.695 489.218 136.694 489.246 136.684L487.317 131.003C484.963 131.803 483.697 133.728 483.323 135.937L489.239 136.938ZM489.23 130.998C489.104 130.956 489.011 130.919 488.947 130.89C488.882 130.861 488.857 130.846 488.862 130.849C488.866 130.851 488.916 130.882 488.989 130.95C489.063 131.019 489.172 131.136 489.279 131.311L484.159 134.439C484.975 135.774 486.396 136.378 487.333 136.69L489.23 130.998ZM489.323 131.387C489.349 131.43 489.305 131.364 489.225 131.104C489.15 130.861 489.064 130.522 488.973 130.068L483.09 131.245C483.307 132.332 483.609 133.479 484.114 134.363L489.323 131.387ZM488.986 130.135C488.786 129.006 488.56 128.002 488.293 127.173L482.582 129.015C482.731 129.477 482.901 130.182 483.077 131.178L488.986 130.135ZM488.293 127.173C488.046 126.409 487.741 125.653 487.341 124.998L482.221 128.127C482.279 128.222 482.412 128.486 482.582 129.015L488.293 127.173ZM487.361 125.031C486.711 123.936 485.624 122.784 483.942 122.46L482.808 128.352C482.54 128.301 482.34 128.183 482.227 128.091C482.13 128.011 482.134 127.981 482.202 128.094L487.361 125.031ZM462.566 162.523C464.082 161.947 464.981 160.74 465.477 159.56C465.956 158.418 466.156 157.099 466.216 155.759L460.222 155.491C460.177 156.485 460.039 157.014 459.945 157.237C459.868 157.421 459.959 157.095 460.434 156.914L462.566 162.523ZM466.214 155.785C466.344 153.373 466.406 150.082 466.406 145.938H460.406C460.406 150.043 460.344 153.21 460.223 155.465L466.214 155.785ZM466.406 145.938C466.406 141.817 466.396 139.054 466.375 137.673L460.375 137.765C460.396 139.092 460.406 141.808 460.406 145.938H466.406ZM466.375 137.719C466.375 136.333 466.365 135.2 466.343 134.331L460.345 134.481C460.365 135.279 460.375 136.355 460.375 137.719H466.375ZM466.343 134.33C466.31 133.039 466.229 131.904 466.079 130.973C466.003 130.508 465.901 130.032 465.752 129.583C465.614 129.168 465.375 128.583 464.93 128.048L460.32 131.889C460.083 131.605 460.03 131.392 460.057 131.472C460.072 131.518 460.111 131.659 460.156 131.933C460.245 132.482 460.315 133.315 460.345 134.482L466.343 134.33ZM465.013 128.154C464.498 127.475 463.769 126.69 462.777 126.223L460.223 131.652C460.137 131.612 460.079 131.575 460.049 131.553C460.019 131.532 460.009 131.522 460.02 131.532C460.03 131.541 460.054 131.565 460.093 131.608C460.131 131.651 460.179 131.708 460.237 131.784L465.013 128.154ZM458.5 128.938C458.5 132.551 458.469 135.36 458.408 137.378C458.377 138.389 458.34 139.177 458.297 139.758C458.25 140.406 458.207 140.615 458.215 140.585L464.035 142.04C464.168 141.51 464.235 140.829 464.281 140.195C464.332 139.495 464.373 138.611 464.405 137.56C464.469 135.452 464.5 132.574 464.5 128.938H458.5ZM458.293 140.321C458.31 140.274 458.336 140.221 458.371 140.171C458.406 140.122 458.436 140.094 458.448 140.084C458.466 140.068 458.385 140.142 458.099 140.232L459.901 145.955C461.6 145.42 463.254 144.312 463.957 142.304L458.293 140.321ZM458.009 145.925C458.229 146.002 458.391 146.072 458.506 146.128C458.562 146.156 458.603 146.179 458.631 146.196C458.659 146.213 458.67 146.221 458.669 146.22C458.668 146.219 458.65 146.206 458.622 146.179C458.594 146.152 458.553 146.108 458.506 146.047C458.409 145.919 458.296 145.722 458.226 145.46L464.024 143.915C463.713 142.749 462.965 141.942 462.269 141.42C461.579 140.903 460.777 140.537 459.991 140.262L458.009 145.925ZM458.215 145.415C458.212 145.405 458.253 145.606 458.299 146.176C458.34 146.694 458.378 147.392 458.408 148.282C458.469 150.06 458.5 152.514 458.5 155.656H464.5C464.5 152.486 464.469 149.955 464.404 148.077C464.345 146.343 464.253 144.831 464.035 143.96L458.215 145.415ZM458.5 155.656V159.719H464.5V155.656H458.5ZM480.82 153.149C481.125 153.492 481.312 153.911 481.312 154.594H487.312C487.312 152.568 486.667 150.695 485.305 149.163L480.82 153.149ZM481.312 154.594V158.719H487.312V154.594H481.312ZM481.312 158.719C481.312 160.577 481.488 162.324 482.017 163.743C482.564 165.21 483.726 166.85 485.882 167.209L486.868 161.291C487.175 161.342 487.437 161.497 487.599 161.659C487.728 161.789 487.71 161.839 487.639 161.647C487.481 161.223 487.312 160.319 487.312 158.719H481.312ZM485.882 167.209C486.631 167.334 487.397 167.317 488.156 167.139L486.782 161.298C486.802 161.294 486.824 161.291 486.844 161.29C486.864 161.29 486.873 161.292 486.868 161.291L485.882 167.209ZM489.992 162.596C489.529 161.876 489.344 161.205 489.344 160.531H483.344C483.344 162.441 483.908 164.228 484.945 165.841L489.992 162.596ZM489.344 160.531V156.156H483.344V160.531H489.344ZM489.344 156.156C489.344 154.405 489.133 152.462 488.152 150.992L483.16 154.32C483.096 154.224 483.159 154.273 483.228 154.625C483.294 154.961 483.344 155.459 483.344 156.156H489.344ZM488.139 150.972C487.048 149.365 485.169 147.735 482.537 148.203L483.588 154.11C483.482 154.129 483.349 154.133 483.206 154.106C483.066 154.08 482.966 154.034 482.912 154.003C482.863 153.975 482.868 153.968 482.921 154.021C482.974 154.074 483.06 154.174 483.174 154.341L488.139 150.972Z" fill="#6084B9"/>
<circle cx="935" cy="255" r="7" fill="#FF0F0F" fill-opacity="0.62"/>
<circle cx="903" cy="255" r="7" fill="#6AFF0F" fill-opacity="0.62"/>
<circle cx="919" cy="255" r="7" fill="#FFE70F" fill-opacity="0.62"/>
<path d="M341.465 270.818C341.401 270.278 341.142 269.859 340.687 269.561C340.232 269.263 339.675 269.114 339.014 269.114C338.531 269.114 338.109 269.192 337.747 269.348C337.388 269.504 337.107 269.719 336.905 269.993C336.706 270.266 336.607 270.577 336.607 270.925C336.607 271.216 336.676 271.466 336.814 271.676C336.956 271.882 337.138 272.054 337.358 272.192C337.578 272.327 337.809 272.439 338.05 272.528C338.292 272.613 338.514 272.683 338.716 272.736L339.824 273.034C340.108 273.109 340.424 273.212 340.772 273.343C341.124 273.474 341.459 273.654 341.779 273.881C342.102 274.105 342.368 274.392 342.578 274.744C342.787 275.096 342.892 275.527 342.892 276.038C342.892 276.628 342.738 277.161 342.429 277.636C342.123 278.112 341.676 278.49 341.086 278.771C340.501 279.051 339.789 279.192 338.95 279.192C338.169 279.192 337.493 279.066 336.921 278.814C336.353 278.561 335.905 278.21 335.579 277.759C335.256 277.308 335.073 276.784 335.03 276.188H336.394C336.429 276.599 336.568 276.94 336.809 277.21C337.054 277.477 337.363 277.675 337.736 277.807C338.112 277.935 338.517 277.999 338.95 277.999C339.455 277.999 339.907 277.917 340.309 277.754C340.71 277.587 341.028 277.356 341.262 277.061C341.497 276.763 341.614 276.415 341.614 276.017C341.614 275.655 341.513 275.36 341.31 275.133C341.108 274.906 340.841 274.721 340.511 274.579C340.181 274.437 339.824 274.312 339.441 274.206L338.098 273.822C337.246 273.577 336.571 273.228 336.074 272.773C335.577 272.319 335.328 271.724 335.328 270.989C335.328 270.378 335.493 269.845 335.824 269.391C336.157 268.933 336.605 268.577 337.166 268.325C337.731 268.07 338.361 267.942 339.057 267.942C339.76 267.942 340.385 268.068 340.932 268.32C341.479 268.569 341.912 268.909 342.232 269.343C342.555 269.776 342.725 270.268 342.743 270.818H341.465ZM347.144 279V270.818H348.401V279H347.144ZM347.783 269.455C347.538 269.455 347.327 269.371 347.149 269.204C346.975 269.037 346.888 268.837 346.888 268.602C346.888 268.368 346.975 268.167 347.149 268C347.327 267.833 347.538 267.75 347.783 267.75C348.028 267.75 348.237 267.833 348.411 268C348.589 268.167 348.678 268.368 348.678 268.602C348.678 268.837 348.589 269.037 348.411 269.204C348.237 269.371 348.028 269.455 347.783 269.455ZM352.953 279V270.818H354.168V272.097H354.274C354.445 271.66 354.72 271.321 355.1 271.079C355.48 270.834 355.936 270.712 356.469 270.712C357.009 270.712 357.458 270.834 357.817 271.079C358.179 271.321 358.461 271.66 358.664 272.097H358.749C358.958 271.674 359.273 271.338 359.692 271.09C360.111 270.838 360.613 270.712 361.199 270.712C361.931 270.712 362.529 270.941 362.994 271.399C363.459 271.853 363.692 272.562 363.692 273.524V279H362.435V273.524C362.435 272.92 362.27 272.489 361.939 272.23C361.609 271.971 361.22 271.841 360.773 271.841C360.198 271.841 359.752 272.015 359.436 272.363C359.12 272.707 358.962 273.144 358.962 273.673V279H357.683V273.396C357.683 272.931 357.532 272.556 357.231 272.272C356.929 271.985 356.54 271.841 356.064 271.841C355.737 271.841 355.432 271.928 355.148 272.102C354.867 272.276 354.64 272.517 354.466 272.826C354.296 273.132 354.21 273.485 354.21 273.886V279H352.953ZM368.24 282.068V270.818H369.455V272.118H369.604C369.696 271.976 369.824 271.795 369.988 271.575C370.154 271.351 370.392 271.152 370.701 270.978C371.014 270.8 371.436 270.712 371.969 270.712C372.658 270.712 373.265 270.884 373.791 271.228C374.316 271.573 374.727 272.061 375.021 272.693C375.316 273.325 375.463 274.071 375.463 274.93C375.463 275.797 375.316 276.548 375.021 277.184C374.727 277.816 374.318 278.306 373.796 278.654C373.274 278.998 372.672 279.17 371.99 279.17C371.465 279.17 371.044 279.083 370.728 278.909C370.412 278.732 370.169 278.531 369.998 278.308C369.828 278.08 369.696 277.892 369.604 277.743H369.498V282.068H368.24ZM369.476 274.909C369.476 275.527 369.567 276.072 369.748 276.544C369.929 277.013 370.194 277.381 370.542 277.647C370.89 277.91 371.316 278.041 371.82 278.041C372.346 278.041 372.784 277.903 373.136 277.626C373.491 277.345 373.757 276.969 373.935 276.496C374.116 276.021 374.206 275.491 374.206 274.909C374.206 274.334 374.118 273.815 373.94 273.354C373.766 272.888 373.501 272.521 373.146 272.251C372.795 271.978 372.353 271.841 371.82 271.841C371.309 271.841 370.879 271.971 370.531 272.23C370.183 272.485 369.92 272.844 369.743 273.306C369.565 273.764 369.476 274.298 369.476 274.909ZM380.888 268.091V279H379.631V268.091H380.888ZM388.871 279.17C388.083 279.17 387.403 278.996 386.831 278.648C386.263 278.297 385.824 277.807 385.515 277.178C385.21 276.546 385.057 275.811 385.057 274.973C385.057 274.135 385.21 273.396 385.515 272.757C385.824 272.114 386.254 271.614 386.804 271.255C387.358 270.893 388.005 270.712 388.743 270.712C389.169 270.712 389.59 270.783 390.006 270.925C390.421 271.067 390.799 271.298 391.14 271.617C391.481 271.933 391.753 272.352 391.955 272.874C392.158 273.396 392.259 274.039 392.259 274.803V275.335H385.952V274.249H390.98C390.98 273.787 390.888 273.375 390.703 273.013C390.522 272.651 390.263 272.365 389.926 272.155C389.592 271.946 389.198 271.841 388.743 271.841C388.242 271.841 387.809 271.965 387.443 272.214C387.081 272.459 386.802 272.778 386.607 273.173C386.412 273.567 386.314 273.989 386.314 274.44V275.165C386.314 275.783 386.421 276.306 386.634 276.736C386.85 277.162 387.15 277.487 387.534 277.711C387.918 277.931 388.363 278.041 388.871 278.041C389.201 278.041 389.5 277.995 389.766 277.903C390.036 277.807 390.268 277.665 390.464 277.477C390.659 277.285 390.81 277.047 390.916 276.763L392.131 277.104C392.003 277.516 391.788 277.878 391.486 278.19C391.185 278.499 390.812 278.741 390.368 278.915C389.924 279.085 389.425 279.17 388.871 279.17ZM406.448 270.818V271.884H402.208V270.818H406.448ZM403.444 268.858H404.701V276.656C404.701 277.011 404.752 277.278 404.855 277.455C404.962 277.629 405.097 277.746 405.26 277.807C405.427 277.864 405.603 277.892 405.788 277.892C405.926 277.892 406.04 277.885 406.128 277.871C406.217 277.853 406.288 277.839 406.342 277.828L406.597 278.957C406.512 278.989 406.393 279.021 406.24 279.053C406.088 279.089 405.894 279.107 405.66 279.107C405.305 279.107 404.957 279.03 404.616 278.877C404.278 278.725 403.998 278.492 403.774 278.18C403.554 277.867 403.444 277.473 403.444 276.997V268.858ZM413.932 279.17C413.143 279.17 412.463 278.996 411.891 278.648C411.323 278.297 410.885 277.807 410.576 277.178C410.27 276.546 410.118 275.811 410.118 274.973C410.118 274.135 410.27 273.396 410.576 272.757C410.885 272.114 411.314 271.614 411.865 271.255C412.419 270.893 413.065 270.712 413.804 270.712C414.23 270.712 414.651 270.783 415.066 270.925C415.482 271.067 415.86 271.298 416.201 271.617C416.542 271.933 416.813 272.352 417.016 272.874C417.218 273.396 417.319 274.039 417.319 274.803V275.335H411.013V274.249H416.041C416.041 273.787 415.949 273.375 415.764 273.013C415.583 272.651 415.324 272.365 414.986 272.155C414.652 271.946 414.258 271.841 413.804 271.841C413.303 271.841 412.87 271.965 412.504 272.214C412.142 272.459 411.863 272.778 411.668 273.173C411.472 273.567 411.375 273.989 411.375 274.44V275.165C411.375 275.783 411.481 276.306 411.694 276.736C411.911 277.162 412.211 277.487 412.595 277.711C412.978 277.931 413.424 278.041 413.932 278.041C414.262 278.041 414.56 277.995 414.826 277.903C415.096 277.807 415.329 277.665 415.524 277.477C415.72 277.285 415.87 277.047 415.977 276.763L417.191 277.104C417.064 277.516 416.849 277.878 416.547 278.19C416.245 278.499 415.872 278.741 415.428 278.915C414.984 279.085 414.486 279.17 413.932 279.17ZM422.199 270.818L424.16 274.163L426.12 270.818H427.569L424.927 274.909L427.569 279H426.12L424.16 275.825L422.199 279H420.751L423.35 274.909L420.751 270.818H422.199ZM435.171 270.818V271.884H430.931V270.818H435.171ZM432.166 268.858H433.424V276.656C433.424 277.011 433.475 277.278 433.578 277.455C433.685 277.629 433.82 277.746 433.983 277.807C434.15 277.864 434.326 277.892 434.51 277.892C434.649 277.892 434.762 277.885 434.851 277.871C434.94 277.853 435.011 277.839 435.064 277.828L435.32 278.957C435.235 278.989 435.116 279.021 434.963 279.053C434.81 279.089 434.617 279.107 434.382 279.107C434.027 279.107 433.679 279.03 433.338 278.877C433.001 278.725 432.72 278.492 432.497 278.18C432.277 277.867 432.166 277.473 432.166 276.997V268.858ZM449.211 279.17C448.422 279.17 447.742 278.996 447.171 278.648C446.603 278.297 446.164 277.807 445.855 277.178C445.55 276.546 445.397 275.811 445.397 274.973C445.397 274.135 445.55 273.396 445.855 272.757C446.164 272.114 446.594 271.614 447.144 271.255C447.698 270.893 448.344 270.712 449.083 270.712C449.509 270.712 449.93 270.783 450.345 270.925C450.761 271.067 451.139 271.298 451.48 271.617C451.821 271.933 452.093 272.352 452.295 272.874C452.497 273.396 452.599 274.039 452.599 274.803V275.335H446.292V274.249H451.32C451.32 273.787 451.228 273.375 451.043 273.013C450.862 272.651 450.603 272.365 450.266 272.155C449.932 271.946 449.538 271.841 449.083 271.841C448.582 271.841 448.149 271.965 447.783 272.214C447.421 272.459 447.142 272.778 446.947 273.173C446.752 273.567 446.654 273.989 446.654 274.44V275.165C446.654 275.783 446.761 276.306 446.974 276.736C447.19 277.162 447.49 277.487 447.874 277.711C448.257 277.931 448.703 278.041 449.211 278.041C449.541 278.041 449.839 277.995 450.106 277.903C450.376 277.807 450.608 277.665 450.804 277.477C450.999 277.285 451.15 277.047 451.256 276.763L452.471 277.104C452.343 277.516 452.128 277.878 451.826 278.19C451.524 278.499 451.152 278.741 450.708 278.915C450.264 279.085 449.765 279.17 449.211 279.17ZM459.85 279.17C459.169 279.17 458.567 278.998 458.045 278.654C457.523 278.306 457.114 277.816 456.82 277.184C456.525 276.548 456.377 275.797 456.377 274.93C456.377 274.071 456.525 273.325 456.82 272.693C457.114 272.061 457.524 271.573 458.05 271.228C458.576 270.884 459.183 270.712 459.872 270.712C460.404 270.712 460.825 270.8 461.134 270.978C461.447 271.152 461.685 271.351 461.848 271.575C462.015 271.795 462.144 271.976 462.237 272.118H462.343V268.091H463.6V279H462.386V277.743H462.237C462.144 277.892 462.013 278.08 461.843 278.308C461.672 278.531 461.429 278.732 461.113 278.909C460.797 279.083 460.376 279.17 459.85 279.17ZM460.021 278.041C460.525 278.041 460.951 277.91 461.299 277.647C461.647 277.381 461.912 277.013 462.093 276.544C462.274 276.072 462.365 275.527 462.365 274.909C462.365 274.298 462.276 273.764 462.098 273.306C461.921 272.844 461.658 272.485 461.31 272.23C460.962 271.971 460.532 271.841 460.021 271.841C459.488 271.841 459.044 271.978 458.689 272.251C458.338 272.521 458.073 272.888 457.896 273.354C457.722 273.815 457.634 274.334 457.634 274.909C457.634 275.491 457.723 276.021 457.901 276.496C458.082 276.969 458.348 277.345 458.7 277.626C459.055 277.903 459.495 278.041 460.021 278.041ZM468.327 279V270.818H469.584V279H468.327ZM468.967 269.455C468.722 269.455 468.51 269.371 468.333 269.204C468.159 269.037 468.072 268.837 468.072 268.602C468.072 268.368 468.159 268.167 468.333 268C468.51 267.833 468.722 267.75 468.967 267.75C469.212 267.75 469.421 267.833 469.595 268C469.773 268.167 469.861 268.368 469.861 268.602C469.861 268.837 469.773 269.037 469.595 269.204C469.421 269.371 469.212 269.455 468.967 269.455ZM477.695 270.818V271.884H473.455V270.818H477.695ZM474.691 268.858H475.948V276.656C475.948 277.011 475.999 277.278 476.102 277.455C476.209 277.629 476.344 277.746 476.507 277.807C476.674 277.864 476.85 277.892 477.035 277.892C477.173 277.892 477.287 277.885 477.376 277.871C477.464 277.853 477.535 277.839 477.589 277.828L477.844 278.957C477.759 278.989 477.64 279.021 477.487 279.053C477.335 279.089 477.141 279.107 476.907 279.107C476.552 279.107 476.204 279.03 475.863 278.877C475.525 278.725 475.245 278.492 475.021 278.18C474.801 277.867 474.691 277.473 474.691 276.997V268.858ZM485.072 279.17C484.333 279.17 483.685 278.995 483.128 278.643C482.574 278.292 482.141 277.8 481.828 277.168C481.519 276.536 481.365 275.797 481.365 274.952C481.365 274.099 481.519 273.355 481.828 272.72C482.141 272.084 482.574 271.591 483.128 271.239C483.685 270.887 484.333 270.712 485.072 270.712C485.811 270.712 486.457 270.887 487.011 271.239C487.569 271.591 488.002 272.084 488.311 272.72C488.623 273.355 488.779 274.099 488.779 274.952C488.779 275.797 488.623 276.536 488.311 277.168C488.002 277.8 487.569 278.292 487.011 278.643C486.457 278.995 485.811 279.17 485.072 279.17ZM485.072 278.041C485.633 278.041 486.095 277.897 486.457 277.61C486.819 277.322 487.087 276.944 487.261 276.475C487.435 276.006 487.522 275.499 487.522 274.952C487.522 274.405 487.435 273.895 487.261 273.423C487.087 272.951 486.819 272.569 486.457 272.278C486.095 271.987 485.633 271.841 485.072 271.841C484.511 271.841 484.049 271.987 483.687 272.278C483.325 272.569 483.057 272.951 482.883 273.423C482.709 273.895 482.622 274.405 482.622 274.952C482.622 275.499 482.709 276.006 482.883 276.475C483.057 276.944 483.325 277.322 483.687 277.61C484.049 277.897 484.511 278.041 485.072 278.041ZM492.948 279V270.818H494.163V272.054H494.248C494.397 271.649 494.667 271.321 495.058 271.069C495.448 270.816 495.889 270.69 496.379 270.69C496.471 270.69 496.587 270.692 496.725 270.696C496.864 270.699 496.968 270.705 497.039 270.712V271.99C496.997 271.979 496.899 271.963 496.746 271.942C496.597 271.917 496.439 271.905 496.272 271.905C495.875 271.905 495.519 271.988 495.207 272.155C494.898 272.319 494.653 272.546 494.472 272.837C494.294 273.125 494.206 273.453 494.206 273.822V279H492.948ZM500.758 279.085C500.495 279.085 500.27 278.991 500.082 278.803C499.893 278.615 499.799 278.389 499.799 278.126C499.799 277.864 499.893 277.638 500.082 277.45C500.27 277.262 500.495 277.168 500.758 277.168C501.021 277.168 501.246 277.262 501.435 277.45C501.623 277.638 501.717 277.864 501.717 278.126C501.717 278.3 501.673 278.46 501.584 278.606C501.499 278.751 501.383 278.869 501.238 278.957C501.096 279.043 500.936 279.085 500.758 279.085Z" fill="white"/>
<rect x="503" y="267" width="5" height="13" fill="#D9D9D9" fill-opacity="0.57"/>
<path d="M326.131 277.729V278H321.876V277.729H322.228C322.638 277.729 322.936 277.609 323.121 277.37C323.238 277.214 323.297 276.838 323.297 276.242V269.826C323.297 269.323 323.265 268.991 323.202 268.83C323.153 268.708 323.053 268.603 322.901 268.515C322.687 268.398 322.462 268.339 322.228 268.339H321.876V268.068H326.131V268.339H325.772C325.367 268.339 325.072 268.459 324.886 268.698C324.764 268.854 324.703 269.23 324.703 269.826V276.242C324.703 276.745 324.735 277.077 324.798 277.238C324.847 277.36 324.95 277.465 325.106 277.553C325.316 277.67 325.538 277.729 325.772 277.729H326.131ZM323.634 294.729V295H319.378V294.729H319.73C320.14 294.729 320.438 294.609 320.624 294.37C320.741 294.214 320.799 293.838 320.799 293.242V286.826C320.799 286.323 320.768 285.991 320.704 285.83C320.655 285.708 320.555 285.603 320.404 285.515C320.189 285.398 319.964 285.339 319.73 285.339H319.378V285.068H323.634V285.339H323.275C322.87 285.339 322.574 285.459 322.389 285.698C322.267 285.854 322.206 286.23 322.206 286.826V293.242C322.206 293.745 322.237 294.077 322.301 294.238C322.35 294.36 322.452 294.465 322.608 294.553C322.818 294.67 323.041 294.729 323.275 294.729H323.634ZM328.629 294.729V295H324.374V294.729H324.725C325.135 294.729 325.433 294.609 325.619 294.37C325.736 294.214 325.794 293.838 325.794 293.242V286.826C325.794 286.323 325.763 285.991 325.699 285.83C325.65 285.708 325.55 285.603 325.399 285.515C325.184 285.398 324.959 285.339 324.725 285.339H324.374V285.068H328.629V285.339H328.27C327.865 285.339 327.569 285.459 327.384 285.698C327.262 285.854 327.201 286.23 327.201 286.826V293.242C327.201 293.745 327.232 294.077 327.296 294.238C327.345 294.36 327.447 294.465 327.604 294.553C327.813 294.67 328.036 294.729 328.27 294.729H328.629ZM321.136 311.729V312H316.881V311.729H317.232C317.643 311.729 317.94 311.609 318.126 311.37C318.243 311.214 318.302 310.838 318.302 310.242V303.826C318.302 303.323 318.27 302.991 318.207 302.83C318.158 302.708 318.058 302.603 317.906 302.515C317.691 302.398 317.467 302.339 317.232 302.339H316.881V302.068H321.136V302.339H320.777C320.372 302.339 320.077 302.459 319.891 302.698C319.769 302.854 319.708 303.23 319.708 303.826V310.242C319.708 310.745 319.74 311.077 319.803 311.238C319.852 311.36 319.955 311.465 320.111 311.553C320.321 311.67 320.543 311.729 320.777 311.729H321.136ZM326.131 311.729V312H321.876V311.729H322.228C322.638 311.729 322.936 311.609 323.121 311.37C323.238 311.214 323.297 310.838 323.297 310.242V303.826C323.297 303.323 323.265 302.991 323.202 302.83C323.153 302.708 323.053 302.603 322.901 302.515C322.687 302.398 322.462 302.339 322.228 302.339H321.876V302.068H326.131V302.339H325.772C325.367 302.339 325.072 302.459 324.886 302.698C324.764 302.854 324.703 303.23 324.703 303.826V310.242C324.703 310.745 324.735 311.077 324.798 311.238C324.847 311.36 324.95 311.465 325.106 311.553C325.316 311.67 325.538 311.729 325.772 311.729H326.131ZM331.126 311.729V312H326.871V311.729H327.223C327.633 311.729 327.931 311.609 328.116 311.37C328.233 311.214 328.292 310.838 328.292 310.242V303.826C328.292 303.323 328.26 302.991 328.197 302.83C328.148 302.708 328.048 302.603 327.896 302.515C327.682 302.398 327.457 302.339 327.223 302.339H326.871V302.068H331.126V302.339H330.768C330.362 302.339 330.067 302.459 329.881 302.698C329.759 302.854 329.698 303.23 329.698 303.826V310.242C329.698 310.745 329.73 311.077 329.793 311.238C329.842 311.36 329.945 311.465 330.101 311.553C330.311 311.67 330.533 311.729 330.768 311.729H331.126ZM320.711 328.729V329H316.456V328.729H316.808C317.218 328.729 317.516 328.609 317.701 328.37C317.818 328.214 317.877 327.838 317.877 327.242V320.826C317.877 320.323 317.845 319.991 317.782 319.83C317.733 319.708 317.633 319.603 317.481 319.515C317.267 319.398 317.042 319.339 316.808 319.339H316.456V319.068H320.711V319.339H320.353C319.947 319.339 319.652 319.459 319.466 319.698C319.344 319.854 319.283 320.23 319.283 320.826V327.242C319.283 327.745 319.315 328.077 319.378 328.238C319.427 328.36 319.53 328.465 319.686 328.553C319.896 328.67 320.118 328.729 320.353 328.729H320.711ZM331.727 319.068V319.339C331.375 319.403 331.109 319.515 330.929 319.676C330.67 319.916 330.44 320.282 330.24 320.775L326.776 329.227H326.505L322.784 320.665C322.594 320.226 322.459 319.957 322.381 319.859C322.259 319.708 322.108 319.591 321.927 319.508C321.751 319.42 321.512 319.364 321.209 319.339V319.068H325.267V319.339C324.808 319.383 324.51 319.461 324.374 319.574C324.237 319.686 324.168 319.83 324.168 320.006C324.168 320.25 324.281 320.631 324.505 321.148L327.032 326.971L329.376 321.222C329.605 320.655 329.72 320.262 329.72 320.042C329.72 319.901 329.649 319.767 329.508 319.64C329.366 319.508 329.127 319.415 328.79 319.361C328.766 319.356 328.724 319.349 328.666 319.339V319.068H331.727ZM329.229 336.068V336.339C328.878 336.403 328.612 336.515 328.431 336.676C328.172 336.916 327.943 337.282 327.743 337.775L324.278 346.227H324.007L320.287 337.665C320.096 337.226 319.962 336.957 319.884 336.859C319.762 336.708 319.61 336.591 319.43 336.508C319.254 336.42 319.015 336.364 318.712 336.339V336.068H322.77V336.339C322.311 336.383 322.013 336.461 321.876 336.574C321.739 336.686 321.671 336.83 321.671 337.006C321.671 337.25 321.783 337.631 322.008 338.148L324.535 343.971L326.878 338.222C327.108 337.655 327.223 337.262 327.223 337.042C327.223 336.901 327.152 336.767 327.01 336.64C326.869 336.508 326.629 336.415 326.292 336.361C326.268 336.356 326.227 336.349 326.168 336.339V336.068H329.229Z" fill="#D5CCCC"/>
</svg>
